<?xml version="1.0" encoding="UTF-8" standalone="no"?>
<svg xmlns:rdf="http://www.w3.org/1999/02/22-rdf-syntax-ns#" xmlns="http://www.w3.org/2000/svg" xml:space="preserve" height="43.462" viewBox="0 0 208.21921 43.461571" width="208.22" version="1.1" xmlns:cc="http://creativecommons.org/ns#" xmlns:dc="http://purl.org/dc/elements/1.1/"><g transform="matrix(1.25 0 0 -1.25 -367.91 488.18)"><g><path d="m15.115 1.0312c-8.6525 0.0876-14.136 0.7891-14.136 0.7891-0.00048 0-0.0008 23.147-0.00048 23.153 1.4819 15.692 16.179 17.537 16.318 17.511 2.625-0.473 14.948-2.952 16.316-17.515v-23.149c-6.974-0.6721-13.306-0.84128-18.498-0.7888zm28.239 0.5176c-0.034 0-0.145 0.0033-0.206 0.045l-0.039 0.0253-0.005 0.045c-0.097 0.5512-0.304 1.4268-0.524 2.0468l-0.014 0.043 0.02 0.0391c0.083 0.1668 0.368 0.2485 0.519 0.1347l0.022-0.0175 0.012-0.0254c0.14-0.3197 0.273-0.6215 0.597-0.92 0.305-0.2803 0.995-0.3183 1.631-0.3183h0.762c0.309 0 0.31-0.0003 0.31 0.3359v6.1914c0 1.5002-0.086 1.5652-0.761 1.6252l-0.498 0.041-0.047 0.015c-0.083 0.051-0.129 0.155-0.123 0.278 0.004 0.093 0.04 0.208 0.131 0.254l0.023 0.013 0.027-0.002c0.848-0.025 1.359-0.041 1.92-0.041 0.541 0 0.99 0.013 1.813 0.041l0.027 0.002 0.024-0.013c0.09-0.046 0.128-0.168 0.134-0.268 0.008-0.12-0.028-0.216-0.097-0.262l-0.492-0.058c-0.693-0.06-0.733-0.151-0.733-1.6252v-6.205c0-0.1416-0.001-0.2761 0.022-0.2989 0.023-0.0234 0.174-0.0234 0.273-0.0234h0.982c0.743 0 1.247 0.107 1.543 0.3262 0.132 0.0962 0.246 0.4465 0.305 0.9375l0.004 0.0312 0.02 0.0254c0.05 0.0616 0.145 0.0977 0.252 0.0977 0.131 0 0.24-0.056 0.285-0.1465l0.013-0.0274-0.002-0.0312c-0.039-0.3988 0.057-1.5142 0.205-2.0664l0.01-0.0391-0.019-0.0371c-0.054-0.1048-0.208-0.1133-0.254-0.1133-0.035 0-0.084 0.0036-0.129 0.0215l-0.035 0.0137-0.018 0.0332c-0.178 0.3087-0.253 0.332-0.988 0.332h-5.725c-0.62 0-0.898-0.0319-0.957-0.3418l-0.006-0.0312-0.023-0.0235c-0.038-0.0384-0.101-0.0586-0.191-0.0586zm117.61 0.002c-0.03 0-0.14 0.0017-0.21 0.043l-0.03 0.0253-0.01 0.045c-0.1 0.5534-0.3 1.4306-0.52 2.0468l-0.02 0.043 0.02 0.0391c0.09 0.1665 0.37 0.2491 0.52 0.1347l0.02-0.0175 0.01-0.0254c0.15-0.3207 0.28-0.6234 0.6-0.92 0.31-0.2803 1-0.3183 1.63-0.3183h0.77c0.31 0 0.3-0.0003 0.3 0.3359v6.1914c0 1.5002-0.08 1.5662-0.76 1.6252l-0.49 0.041-0.05 0.015c-0.08 0.051-0.13 0.155-0.12 0.278 0 0.093 0.04 0.209 0.13 0.254l0.02 0.013 0.03-0.002c0.84-0.025 1.36-0.041 1.92-0.041 0.54 0 0.99 0.013 1.81 0.041l0.02 0.002 0.03-0.013c0.11-0.057 0.13-0.217 0.14-0.266 0-0.121-0.03-0.218-0.1-0.264l-0.49-0.058c-0.7-0.06-0.74-0.151-0.74-1.6252v-6.207c0-0.1406 0-0.2744 0.03-0.2969 0.02-0.0234 0.17-0.0234 0.27-0.0234h0.98c0.74 0 1.25 0.107 1.54 0.3262 0.14 0.096 0.25 0.4459 0.31 0.9375v0.0312l0.02 0.0234c0.05 0.0619 0.15 0.0997 0.25 0.0997 0.13 0 0.25-0.056 0.29-0.1465l0.01-0.0274v-0.0312c-0.04-0.3972 0.06-1.5124 0.2-2.0664l0.01-0.0391-0.01-0.0351c-0.05-0.1032-0.2-0.1153-0.26-0.1153-0.03 0-0.08 0.0036-0.13 0.0215l-0.03 0.0137-0.02 0.0332c-0.18 0.3084-0.25 0.334-0.99 0.334h-5.72c-0.62 0-0.9-0.0339-0.96-0.3438v-0.0312l-0.03-0.0235c-0.04-0.0384-0.1-0.0566-0.19-0.0566zm-12.04 0.2324c-1.75 0-2.93 1.0005-2.93 2.4883 0 1.265 0.96 2.0907 1.54 2.4707l1.32 0.8594c0.95 0.615 1.09 1.2524 1.09 1.8496 0 0.7388-0.51 1.4868-1.63 1.4868-1.4 0-2.01-1.0822-2.28-1.9888l-0.01-0.0293c-0.04-0.0619-0.12-0.0957-0.22-0.0957-0.09 0-0.22 0.035-0.29 0.1348l-0.02 0.0293v0.0371c0.03 0.6259 0.2 1.6526 0.39 1.9866l0.01 0.025 0.03 0.016c0.27 0.158 1.03 0.525 2.21 0.525 1.83 0 3.06-1.072 3.06-2.6678 0-1.1072-0.59-2.0059-1.78-2.7481l-1.11-0.6933c-0.42-0.2613-1.13-0.8167-1.13-1.6114 0-0.5344 0.2-1.4316 1.54-1.4316 1.22 0 1.6 0.7944 1.78 1.4863l0.02 0.0391c0.05 0.0543 0.12 0.084 0.21 0.084 0.11 0 0.25-0.0419 0.31-0.1348l0.02-0.0274v-0.0312c0-0.5659-0.12-1.3563-0.26-1.7266l-0.02-0.0703h-0.08c-0.09 0-0.28-0.0241-0.46-0.0781-0.33-0.0891-0.85-0.1836-1.31-0.1836zm42.93 0c-2.88 0-5.04 2.1483-5.04 4.9961 0 2.3853 1.73 4.7987 5.04 4.7987 2.8 0 4.91-2.1234 4.91-4.9393 0-2.3385-1.54-4.8555-4.91-4.8555zm14.17 0.1543l-0.13 0.0293c-0.17 0.0385-1.02 0.0391-1.84 0.0391h-2.55c-0.52 0-0.99-0.0126-1.6-0.0411l-0.03-0.0019-0.02 0.0117c-0.12 0.056-0.14 0.2188-0.14 0.2676-0.01 0.1209 0.03 0.2174 0.1 0.2637l0.26 0.0449c0.71 0.0846 0.74 0.1599 0.74 1.6387v4.9863c0 1.4642-0.03 1.5402-0.74 1.6252l-0.38 0.045-0.03 0.025c-0.07 0.078-0.09 0.207-0.07 0.301 0.01 0.103 0.06 0.181 0.13 0.215l0.02 0.013 0.03-0.002c0.65-0.026 1.12-0.041 1.73-0.041 0.56 0 1.04 0.015 1.84 0.041l0.02 0.002 0.03-0.013c0.09-0.046 0.13-0.167 0.13-0.268 0.01-0.12-0.02-0.216-0.09-0.262l-0.52-0.056c-0.71-0.06-0.75-0.151-0.75-1.6252v-1.9258c0-0.2675 0-0.2676 0.35-0.2676h0.94c0.49 0 0.85 0.0114 1.03 0.0645 0.2 0.0619 0.3 0.1873 0.38 0.4492l0.14 0.5742 0.03 0.0215c0.14 0.1175 0.43 0.112 0.52-0.0215l0.02-0.0273v-0.0313c0-0.1437-0.02-0.3295-0.03-0.5351-0.01-0.251-0.03-0.5352-0.03-0.8086 0-0.2807 0.02-0.578 0.03-0.8399 0.02-0.2153 0.03-0.4086 0.03-0.5586v-0.0332l-0.02-0.0254c-0.07-0.0991-0.21-0.1093-0.26-0.1093-0.12 0-0.22 0.0368-0.27 0.0996l-0.15 0.5976c-0.08 0.336-0.17 0.3704-0.28 0.4082-0.14 0.0488-0.57 0.0782-1.14 0.0782h-0.94c-0.35 0-0.35-0.0004-0.35-0.2676v-2.9238c0-0.4476 0-0.4473 0.31-0.4473h0.84c0.57 0 1.03-0.0002 1.32 0.0801 0.59 0.1543 0.77 0.553 0.89 1.2324l0.01 0.0371 0.02 0.0254c0.06 0.0459 0.13 0.0703 0.21 0.0703 0.11 0 0.24-0.0459 0.29-0.1465l0.02-0.0254-0.01-0.0273c-0.02-0.501-0.04-1.1482-0.04-1.8223v-0.1328zm-132.52 0.0059l-0.094 0.0234c-0.154 0.0381-1.013 0.0391-1.844 0.0391h-2.603c-0.534 0-0.989-0.0113-1.627-0.0411l-0.029-0.0019-0.024 0.0117c-0.114 0.056-0.133 0.2195-0.137 0.2676-0.008 0.1212 0.027 0.2174 0.096 0.2637l0.27 0.0449c0.709 0.0841 0.75 0.1746 0.75 1.6387v4.9863c0 1.5002-0.086 1.5652-0.762 1.6252l-0.494 0.043-0.027 0.027c-0.08 0.079-0.092 0.208-0.077 0.303 0.017 0.102 0.065 0.182 0.131 0.215l0.024 0.011 0.027-0.002c0.8-0.026 1.281-0.041 1.879-0.041h1.248c1.208 0 2.421 0.014 3.709 0.041l0.068 0.002 0.03-0.062c0.186-0.387 0.533-1.4612 0.63-1.9493l0.006-0.0332-0.013-0.0313c-0.06-0.1334-0.207-0.1933-0.327-0.1933-0.068 0-0.129 0.0179-0.177 0.0527l-0.033 0.0391c-0.398 0.7933-0.755 1.1963-0.936 1.2973-0.298 0.148-0.718 0.195-1.727 0.195-1.153 0-1.45-0.137-1.597-0.283-0.196-0.209-0.235-0.6617-0.235-1.3695v-1.9512c0-0.2681 0.001-0.2675 0.352-0.2675h0.803c0.483 0 0.845 0.0094 1.041 0.0644 0.193 0.0481 0.291 0.1732 0.351 0.4473l0.123 0.539 0.022 0.045c0.051 0.0625 0.149 0.0996 0.26 0.0996 0.126 0 0.229-0.0471 0.275-0.127l0.014-0.0254v-0.0273c0-0.1353-0.009-0.315-0.022-0.5156-0.015-0.2526-0.033-0.5373-0.033-0.8145 0-0.2897 0.018-0.5864 0.033-0.8477 0.013-0.2118 0.022-0.402 0.022-0.5507v-0.0274l-0.014-0.0254c-0.046-0.0806-0.149-0.1289-0.275-0.1289-0.111 0-0.209 0.0371-0.26 0.0996l-0.133 0.6153c-0.063 0.3162-0.14 0.3643-0.262 0.4043-0.147 0.0497-0.564 0.0781-1.142 0.0781h-0.803c-0.351 0-0.352-0.0013-0.352-0.2832v-2.7695c0-0.4476 0-0.4473 0.309-0.4473h0.998c0.588 0 1.038 0.0151 1.318 0.082 0.632 0.1578 0.757 0.5558 0.95 1.1602l0.027 0.084 0.019 0.0351c0.048 0.0575 0.127 0.0879 0.225 0.0879 0.096 0 0.23-0.0315 0.291-0.123l0.022-0.0313-0.02-0.2051c-0.072-0.8062-0.137-1.4908-0.211-1.7011l-0.033-0.0918zm57.706 0l-0.1 0.0234c-0.15 0.0381-1.01 0.0371-1.84 0.0371h-2.6c-0.54 0-0.99-0.0113-1.63-0.041h-0.03l-0.02 0.0117c-0.12 0.056-0.14 0.2175-0.14 0.2656-0.01 0.1213 0.03 0.2194 0.1 0.2657l0.26 0.0429c0.71 0.0842 0.75 0.1766 0.75 1.6407v4.9843c0 1.5002-0.08 1.5652-0.76 1.6252l-0.49 0.045-0.03 0.027c-0.08 0.078-0.09 0.208-0.07 0.303 0.01 0.102 0.06 0.18 0.13 0.213l0.02 0.013 0.03-0.002c0.8-0.026 1.28-0.041 1.88-0.041h1.24c1.21 0 2.43 0.014 3.71 0.041l0.07 0.002 0.03-0.062c0.19-0.389 0.53-1.4631 0.63-1.9493l0.01-0.0332-0.02-0.0313c-0.06-0.1334-0.2-0.1933-0.32-0.1933-0.07 0-0.13 0.0179-0.18 0.0527l-0.03 0.0391c-0.4 0.7923-0.76 1.1963-0.94 1.2973-0.3 0.148-0.72 0.195-1.73 0.195-1.15 0-1.45-0.138-1.59-0.285-0.2-0.209-0.24-0.6597-0.24-1.3675v-1.9512c0-0.2681 0-0.2695 0.35-0.2695h0.81c0.48 0 0.84 0.0114 1.04 0.0664 0.19 0.0479 0.29 0.1735 0.35 0.4473l0.12 0.539 0.02 0.045c0.06 0.0625 0.15 0.0996 0.26 0.0996 0.13 0 0.23-0.0471 0.28-0.127l0.01-0.0254v-0.0273c0-0.1353-0.01-0.315-0.02-0.5156-0.01-0.2526-0.03-0.5373-0.03-0.8145 0-0.2897 0.01-0.5864 0.03-0.8477 0.01-0.2118 0.02-0.402 0.02-0.5507v-0.0293l-0.01-0.0235c-0.05-0.0806-0.15-0.1289-0.28-0.1289-0.11 0-0.2 0.0371-0.26 0.0996l-0.13 0.6153c-0.06 0.3165-0.14 0.3643-0.26 0.4043-0.15 0.0497-0.57 0.0781-1.14 0.0781h-0.81c-0.35 0-0.35-0.0013-0.35-0.2832v-2.7695c0-0.4476 0-0.4473 0.31-0.4473h1c0.59 0 1.04 0.0151 1.32 0.082 0.63 0.1578 0.75 0.5558 0.95 1.1602l0.02 0.084 0.02 0.0351c0.05 0.0575 0.13 0.0879 0.23 0.0879 0.09 0 0.23-0.0331 0.29-0.125l0.02-0.0312-0.02-0.2032c-0.07-0.8068-0.14-1.4905-0.21-1.7011l-0.03-0.0918zm-34.718 0.0078l-0.084 0.0136c-0.166 0.025-0.392 0.0391-0.621 0.0391-0.242 0-0.979 0-1.557-0.041l-0.029-0.002-0.027 0.0137c-0.074 0.0371-0.123 0.1131-0.139 0.209-0.019 0.1152 0.014 0.2357 0.084 0.3066l0.026 0.0274 0.271 0.0312c0.369 0.0459 0.645 0.1504 0.793 0.2989 0.258 0.2828 0.277 0.5392 0.277 0.9257v4.127c0.001 0.6694 0.004 2.2376-0.17 2.6836-0.032 0.071-0.149 0.165-0.523 0.215l-0.412 0.047-0.026 0.025c-0.061 0.062-0.094 0.159-0.085 0.264 0.008 0.104 0.054 0.194 0.125 0.244l0.031 0.021 0.037-0.002c0.481-0.026 0.854-0.041 1.435-0.041 0.469 0 0.937 0.013 1.616 0.041l0.037 0.002 0.029-0.021c0.065-0.046 0.107-0.119 0.121-0.207 0.016-0.101-0.009-0.208-0.07-0.289l-0.027-0.037-0.479-0.047c-0.332-0.027-0.565-0.104-0.623-0.209-0.149-0.263-0.234-1.2896-0.234-2.8146v-3.0195c0-0.2479 0.004-0.5111 0.029-0.6993 0.22 0.2463 0.586 0.6784 0.916 1.0684 0.226 0.2675 0.435 0.5166 0.57 0.6719l3.217 3.6543c1.06 1.2148 1.58 1.8178 1.76 2.0818l0.03 0.045h0.06c0.18 0 0.32-0.083 0.36-0.224l0.01-0.022v-0.023c-0.02-0.162-0.04-0.712-0.04-2.4125v-3.4961c0-0.7094-0.01-2.1853 0.19-2.6172 0.02-0.035 0.19-0.1544 0.7-0.2344l0.23-0.0312 0.02-0.0254c0.07-0.0669 0.1-0.1754 0.09-0.2832-0.01-0.0988-0.06-0.1823-0.13-0.2285l-0.03-0.0176h-0.04c-0.45 0.0266-0.81 0.041-1.42 0.041-0.49 0-0.94-0.0113-1.63-0.041h-0.02l-0.02 0.0078c-0.08 0.0298-0.13 0.1045-0.15 0.207-0.03 0.1238 0.01 0.2487 0.09 0.3184l0.03 0.0215 0.27 0.0312c0.47 0.0594 0.71 0.1304 0.78 0.2285 0.16 0.2616 0.26 1.2849 0.26 2.8086v2.9649c0 0.134 0 0.2883-0.01 0.3945-0.48-0.4962-0.98-1.0587-1.61-1.7578l-1.925-2.1602c-1.37-1.5368-2.154-2.5448-2.332-2.9961l-0.031-0.08zm-7.756 0.0097l-0.029 0.0215c-0.064 0.0425-0.108 0.1205-0.121 0.2149-0.014 0.1037 0.012 0.2031 0.072 0.2734l0.028 0.0352 0.39 0.0293c0.318 0.0262 0.534 0.1111 0.608 0.2382 0.161 0.2844 0.25 1.2828 0.25 2.8125v1.5938c0 1.6319-0.461 3.5783-2.663 3.5783-1.845 0-2.705-1.142-2.705-3.592v-2.9902c0-1.4728 0.048-1.581 0.733-1.6406l0.359-0.0293 0.024-0.0157c0.069-0.046 0.103-0.1393 0.095-0.2558-0.006-0.0966-0.044-0.2151-0.134-0.2598l-0.026-0.0117h-0.027c-0.657 0.0266-1.121 0.041-1.697 0.041-0.569 0-1.06-0.015-1.713-0.041h-0.028l-0.023 0.0117c-0.091 0.0444-0.13 0.1635-0.137 0.2598-0.007 0.1168 0.027 0.2093 0.096 0.2558l0.023 0.0157 0.373 0.0293c0.686 0.0597 0.735 0.1678 0.735 1.6406v3.2676c0 1.6746 0.343 2.7076 1.115 3.3496 0.61 0.522 1.505 0.785 2.66 0.785 1.091 0 2.135-0.4 2.723-1.045 0.671-0.7189 0.998-1.8247 0.998-3.3807v-1.5664c0-0.7018-0.001-2.3443 0.183-2.7793 0.065-0.1393 0.302-0.2468 0.604-0.2714l0.379-0.0293 0.027-0.0352c0.062-0.0744 0.091-0.1882 0.074-0.291-0.014-0.0866-0.059-0.1567-0.127-0.1992l-0.029-0.0196-0.033 0.002c-0.481 0.0266-0.854 0.041-1.447 0.041-0.531 0-1.047-0.0135-1.575-0.041l-0.035-0.002zm24.364 0l-0.03 0.0176c-0.08 0.05-0.14 0.1441-0.14 0.25-0.01 0.1059 0.02 0.206 0.1 0.2676l0.02 0.0215 0.28 0.0312c0.54 0.0629 0.73 0.3097 1.04 1.0703l2.44 6.0079c0.29 0.719 0.5 1.336 0.63 1.83l0.01 0.051 0.05 0.021c0.08 0.033 0.16 0.049 0.25 0.049 0.08 0 0.15-0.022 0.21-0.06l0.03-0.02 0.01-0.035c0.24-0.744 0.91-2.3778 1.44-3.6056l0.75-1.7031c0.64-1.4563 1.17-2.5531 1.54-3.1719 0.18-0.2847 0.36-0.4104 0.64-0.4336l0.45-0.0312 0.03-0.0254c0.08-0.0756 0.09-0.2072 0.08-0.2969-0.02-0.101-0.06-0.1777-0.13-0.2168l-0.03-0.0156h-0.03c-0.46 0.0279-0.89 0.041-1.34 0.041-0.54 0-1.06-0.0148-1.43-0.041l-0.03-0.002-0.03 0.0157c-0.08 0.0437-0.13 0.1367-0.14 0.2461-0.01 0.1106 0.03 0.2128 0.1 0.2734l0.02 0.0215 0.28 0.0312c0.49 0.0554 0.53 0.1563 0.53 0.1563 0 0.0904-0.01 0.2297-0.11 0.5019-0.24 0.6032-0.9 2.19-1.29 3.0996-0.1 0.2357-0.23 0.5425-0.38 0.8809-0.26 0.6225-0.58 1.3793-0.85 1.9746-0.65-1.5053-1.26-3.0155-1.87-4.5586-0.41-0.9944-0.64-1.7165-0.68-1.8965 0.02-0.0441 0.14-0.1035 0.55-0.1582l0.24-0.0312 0.03-0.0215c0.07-0.0606 0.1-0.1631 0.09-0.2734-0.01-0.1098-0.06-0.2024-0.14-0.2461l-0.02-0.0157-0.04 0.002c-0.61 0.0291-1.1 0.041-1.67 0.041s-1.02-0.0125-1.43-0.041l-0.03-0.002zm-58.92 0.002l-0.024 0.0117c-0.114 0.0556-0.133 0.2175-0.136 0.2656-0.009 0.1217 0.026 0.2171 0.095 0.2637l0.024 0.0156 0.386 0.0313c0.611 0.0469 0.721 0.1718 0.721 1.6387v4.9843c0 1.4422-0.028 1.5032-0.717 1.6272l-0.267 0.047-0.024 0.023c-0.079 0.079-0.091 0.208-0.076 0.303 0.017 0.102 0.064 0.18 0.131 0.213l0.023 0.013 0.028-0.002c0.19-0.005 0.371-0.011 0.552-0.017 0.328-0.011 0.667-0.024 1.051-0.024 0.521 0 0.963 0.013 1.756 0.041l0.027 0.002 0.024-0.013c0.091-0.046 0.129-0.168 0.135-0.268 0.007-0.12-0.029-0.216-0.098-0.262l-0.447-0.056c-0.665-0.072-0.75-0.14-0.75-1.6272v-1.9531c0-0.3362 0-0.3359 0.586-0.3359h3.961c0.585 0 0.586-0.0003 0.586 0.3359v1.9531c0 1.4732-0.016 1.5042-0.756 1.6272l-0.297 0.047-0.024 0.023c-0.079 0.079-0.091 0.21-0.076 0.305 0.017 0.102 0.065 0.178 0.131 0.211l0.025 0.013 0.028-0.002c0.663-0.029 1.146-0.041 1.67-0.041 0.546 0 1.026 0.015 1.672 0.041l0.025 0.002 0.025-0.013c0.115-0.057 0.134-0.217 0.137-0.266 0.008-0.121-0.028-0.218-0.098-0.264l-0.377-0.058c-0.702-0.085-0.738-0.161-0.738-1.6232v-4.9863c0-1.4754 0.041-1.5662 0.735-1.6387l0.291-0.0274 0.048-0.0175c0.07-0.0459 0.106-0.1411 0.098-0.2618-0.002-0.0487-0.023-0.2129-0.137-0.2695l-0.023-0.0117-0.029 0.0019c-0.67 0.0294-1.126 0.0411-1.629 0.0411-0.6 0-1.084-0.0157-1.67-0.0411l-0.028-0.0019-0.025 0.0117c-0.114 0.056-0.133 0.2192-0.137 0.2676-0.007 0.1209 0.029 0.2174 0.098 0.2637l0.311 0.0449c0.707 0.0727 0.75 0.1637 0.75 1.6387v1.5917c0 0.3372-0.001 0.3379-0.586 0.3379h-3.961c-0.586 0-0.586-0.0007-0.586-0.3379v-1.5917c0-1.4754 0.042-1.5659 0.736-1.6387l0.262-0.0274 0.049-0.0175c0.069-0.0459 0.103-0.1428 0.095-0.2637-0.002-0.0488-0.022-0.2117-0.136-0.2676l-0.024-0.0117-0.027 0.0019c-0.63 0.0292-1.095 0.0411-1.602 0.0411-0.361 0-0.677-0.0105-1.021-0.0215-0.222-0.0075-0.456-0.0143-0.721-0.0196l-0.025-0.0019zm52.95 0l-0.02 0.0117c-0.11 0.056-0.13 0.2192-0.14 0.2676 0 0.1209 0.03 0.2174 0.1 0.2637l0.02 0.0156 0.37 0.0293c0.7 0.0594 0.75 0.1676 0.75 1.666v4.9297c0 1.4905-0.03 1.5685-0.75 1.6545l-0.38 0.045-0.03 0.025c-0.08 0.079-0.09 0.208-0.07 0.303 0.01 0.102 0.06 0.18 0.13 0.213l0.02 0.013 0.03-0.002c0.7-0.026 1.17-0.041 1.74-0.041 0.55 0 1.03 0.015 1.71 0.041l0.03 0.002 0.02-0.013c0.12-0.057 0.14-0.219 0.14-0.268 0.01-0.12-0.03-0.216-0.1-0.262l-0.39-0.058c-0.71-0.086-0.75-0.162-0.75-1.6525v-4.9297c0-1.4984 0.05-1.607 0.75-1.666l0.37-0.0293 0.03-0.0156c0.06-0.0463 0.1-0.1425 0.09-0.2637 0-0.0485-0.02-0.2117-0.14-0.2676l-0.02-0.0117h-0.03c-0.65 0.026-1.14 0.041-1.71 0.041-0.59 0-1.07-0.0144-1.74-0.041h-0.03zm47.11 0l-0.02 0.0117c-0.12 0.0566-0.13 0.2192-0.14 0.2676-0.01 0.1202 0.03 0.2158 0.1 0.2617l0.02 0.0156 0.37 0.0293c0.71 0.06 0.75 0.1546 0.75 1.668v4.9297c0 1.4905-0.03 1.5675-0.75 1.6525l-0.38 0.047-0.03 0.025c-0.08 0.078-0.09 0.208-0.07 0.303 0.01 0.102 0.06 0.18 0.13 0.213l0.02 0.013 0.03-0.002c0.7-0.026 1.17-0.041 1.74-0.041 0.55 0 1.01 0.015 1.71 0.041l0.03 0.002 0.02-0.013c0.12-0.057 0.14-0.219 0.14-0.268 0.01-0.12-0.03-0.216-0.1-0.262l-0.39-0.058c-0.72-0.085-0.75-0.162-0.75-1.6525v-4.9297c0-1.5134 0.04-1.6063 0.75-1.666l0.37-0.0313 0.02-0.0156c0.07-0.0462 0.11-0.1408 0.1-0.2617 0-0.0484-0.02-0.2113-0.14-0.2676l-0.02-0.0117h-0.03c-0.65 0.026-1.14 0.041-1.71 0.041-0.59 0-1.07-0.0144-1.74-0.041h-0.03zm17.07 0l-0.02 0.0156c-0.07 0.0388-0.12 0.1103-0.14 0.2031-0.01 0.1113 0.02 0.2288 0.08 0.3047l0.02 0.0293 0.43 0.0742c0.37 0.0615 0.55 0.0934 1.02 0.9961l1.63 3.1856c0.39 0.7537 0.43 0.9112 0.43 1.6699v0.7051c0 1.5035-0.03 1.5815-0.73 1.6545l-0.47 0.045-0.03 0.027c-0.08 0.079-0.09 0.208-0.07 0.303 0.02 0.102 0.06 0.178 0.13 0.211l0.02 0.013 0.03-0.002c0.75-0.026 1.23-0.041 1.81-0.041 0.56 0 1.06 0.016 1.88 0.041l0.03 0.002 0.02-0.013c0.07-0.033 0.12-0.111 0.13-0.213 0.02-0.095 0-0.224-0.07-0.303l-0.03-0.027-0.57-0.043c-0.64-0.049-0.73-0.155-0.73-1.6545v-0.7207c0-1.0375 0.03-1.1398 0.64-2.1895l0.87-1.5097c0.08-0.1363 0.15-0.2671 0.23-0.3946 0.54-0.9515 0.94-1.64 1.53-1.7422l0.41-0.0742 0.02-0.0195c0.07-0.0616 0.11-0.1597 0.1-0.2656 0-0.106-0.06-0.1997-0.14-0.25l-0.03-0.0176h-0.03c-0.99 0.0575-1.57 0.0571-2.61 0h-0.02l-0.03 0.0117c-0.08 0.0388-0.13 0.118-0.15 0.2149-0.01 0.1118 0.02 0.226 0.09 0.3007l0.03 0.0274 0.29 0.0312c0.27 0.0334 0.43 0.1002 0.48 0.1367-0.04 0.1982-0.53 1.0954-0.82 1.6407l-0.06 0.1191c-0.34 0.645-0.72 1.3388-1.21 2.1738-0.36-0.659-0.72-1.3831-1.06-2.0859-0.14-0.2759-0.27-0.5523-0.41-0.8223-0.1-0.2003-0.41-0.9072-0.42-1.0175 0-0.0278 0.06-0.0834 0.49-0.1446l0.22-0.0332 0.02-0.0254c0.08-0.0752 0.11-0.2107 0.08-0.33-0.02-0.0947-0.08-0.1652-0.16-0.1914l-0.02-0.0059-0.02 0.0019c-0.34 0.0269-0.84 0.0391-1.48 0.0391s-1.14-0.0131-1.59-0.041h-0.04zm-33.25 0.0019c-1.26 0-2.25 0.0342-3.09 0.1094l-0.04 0.0117c-0.08 0.0403-0.14 0.1296-0.14 0.2383-0.01 0.1191 0.03 0.2342 0.11 0.291l0.02 0.0157 0.47 0.0586c0.45 0.055 0.52 0.1524 0.52 1.5136v4.9727c0 1.4642-0.04 1.5402-0.74 1.6252l-0.39 0.047-0.02 0.031c-0.08 0.091-0.09 0.221-0.07 0.314 0.02 0.094 0.06 0.164 0.13 0.196l0.02 0.011h0.03c0.61-0.025 1.12-0.041 1.73-0.041 0.57 0 1.05 0.016 1.64 0.041h0.03l0.02-0.011c0.1-0.051 0.13-0.184 0.13-0.239 0.02-0.122-0.01-0.229-0.08-0.285l-0.02-0.017-0.33-0.047c-0.71-0.099-0.73-0.159-0.73-1.6252v-1.7461c0-0.1975 0-0.1973 0.54-0.1973 0.53 0 0.71 0.1274 0.9 0.3965 0.21 0.3056 0.45 0.6934 0.69 1.0684 0.25 0.3915 0.48 0.7615 0.66 1.0234 0.96 1.3543 1.67 1.7893 2.96 1.7893 0.27 0 0.5-0.027 0.64-0.074l0.03-0.018c0.07-0.051 0.1-0.134 0.09-0.215-0.02-0.075-0.06-0.136-0.13-0.162l-0.03-0.006c-0.33-0.024-0.66-0.159-0.9-0.363-0.95-0.7998-1.71-1.9677-2.75-3.6583-0.08-0.1169-0.09-0.1706-0.09-0.1934 0.46-0.1919 1.76-0.8712 1.76-2.3965 0-1.16-0.65-1.745-1.2-2.0312-0.7-0.3772-1.59-0.4278-2.37-0.4278zm53.55 0.461c2.62 0 3.55 2.5004 3.55 4.6426 0 2.8546-1.69 3.8696-3.13 3.8696-2.86 0-3.62-2.893-3.62-4.6021 0-2.8856 1.72-3.9101 3.2-3.9101zm-53.56 0.1797c1.56 0 2.11 1.0907 2.11 2.0254 0 0.7675-0.21 1.2865-0.65 1.6328-0.4 0.2997-0.94 0.3398-1.36 0.3398-0.63 0-0.82-0.0236-0.88-0.041-0.01-0.0573-0.01-0.2205-0.01-0.3789v-3.2422c0-0.3112 0-0.3359 0.79-0.3359zm-82.634 16.34c-3.456 0-6.546 0.93-8.973 2.825-2.526 1.961-4.187 5.119-4.187 8.808 0 4.287 2.062 7.31 4.721 9.139 2.425 1.628 5.282 2.226 8.273 2.226 2.127 0 4.521-0.498 5.252-0.763 0.366-0.133 0.764-0.267 1.162-0.334 0.499-0.632 1.363-2.825 1.596-4.553-0.134-0.232-0.631-0.298-0.864-0.133-0.764 1.961-2.658 4.754-6.945 4.754-5.45 0-9.871-3.857-9.871-10.836 0-6.88 4.32-10.103 9.404-10.103 4.819 0 6.316 2.593 6.815 4.853 0.232 0.199 0.731 0.166 0.896-0.066-0.265-2.027-0.431-4.122-0.465-4.887-0.299 0.033-0.53-0.032-0.929-0.131-1.563-0.432-4.09-0.799-5.885-0.799zm67.364 0c-3.45 0-6.55 0.93-8.97 2.825-2.53 1.961-4.19 5.119-4.19 8.808 0 4.287 2.06 7.31 4.72 9.139 2.43 1.628 5.29 2.226 8.28 2.226 2.12 0 4.52-0.498 5.25-0.763 0.36-0.133 0.76-0.267 1.16-0.334 0.5-0.632 1.36-2.825 1.6-4.553-0.14-0.232-0.64-0.298-0.87-0.133-0.76 1.961-2.66 4.754-6.94 4.754-5.45 0-9.87-3.857-9.87-10.836 0-6.88 4.32-10.103 9.4-10.103 4.82 0 6.32 2.593 6.81 4.853 0.24 0.199 0.73 0.166 0.9-0.066-0.27-2.027-0.43-4.122-0.46-4.887-0.3 0.033-0.53-0.032-0.93-0.131-1.57-0.432-4.09-0.799-5.89-0.799zm22.27 0c-0.37 0.433-0.93 1.029-1.73 1.262 0.1 0.532-0.1 1.163-0.56 2.359l-3.39 8.975c-1.4 3.723-2.33 5.882-2.93 7.41-0.46 1.197-1.2 1.563-1.99 1.629l-1.1 0.1c-0.2 0.166-0.13 0.699 0.07 0.832 0.9-0.033 2.09-0.1 3.19-0.1 1.56 0.033 2.59 0.033 3.45 0.1 0.3-0.133 0.3-0.666 0.07-0.832l-1.1-0.1c-0.79-0.066-0.96-0.265-0.96-0.664 0-0.365 0.23-1.264 0.73-2.76l1.16-3.488c0.24-0.698 0.44-0.799 1.27-0.799h5.02c0.99 0 1.13 0.101 1.36 0.832l1.46 4.52c0.27 0.797 0.43 1.396 0.43 1.761 0 0.333-0.46 0.532-1.16 0.598l-0.96 0.1c-0.24 0.166-0.2 0.699 0.06 0.832 0.97-0.033 2.23-0.1 3.82-0.1 1.5 0 2.66 0.033 4.03 0.1 0.16-0.133 0.23-0.666 0-0.832l-0.9-0.1c-1.43-0.166-1.86-0.665-2.83-3.523l-4.55-13.36c-0.5-1.462-1.03-2.99-1.46-4.453-0.07-0.232-0.3-0.299-0.5-0.299zm25.69 0c-5.02 0-8.31 1.562-10.54 3.889-2.06 2.193-2.99 5.05-2.99 7.875 0 2.925 1.07 5.551 3.06 7.545 2.56 2.592 6.18 3.689 10.14 3.689 1.79 0 4.18-0.398 5.95-0.863 0.63-0.166 1.23-0.301 1.62-0.301 0.14-0.099 0.14-0.299 0.04-0.398-0.6-0.233-0.8-1.03-0.8-2.36v-1.861c0-1.695 0.03-2.624 1.43-2.791l0.53-0.066c0.23-0.199 0.2-0.699-0.03-0.832-1.1 0.066-2.23 0.099-3.53 0.099-1.96 0-3.78-0.033-4.75-0.099-0.23 0.099-0.26 0.7 0 0.832l1.46 0.166c2.06 0.232 2.16 0.431 2.16 3.222v1.33c0 1.064-0.16 1.663-0.33 1.895-0.36 0.565-1.59 0.998-3.65 0.998-6.68 0-9.97-5.02-9.97-11.4 0-4.985 2.82-9.573 9.27-9.573 3.39 0 5.88 1.13 6.81 4.719 0.2 0.2 0.8 0.167 0.9-0.099-0.3-1.995-0.5-3.723-0.5-4.819-0.4 0.066-1.43-0.166-2.06-0.299-0.56-0.132-2.33-0.498-4.22-0.498zm24.92 0c-6.84 0-11.83 5.085-11.83 11.731 0 5.982 4.46 11.267 11.83 11.267 6.42 0 11.54-4.886 11.54-11.599 0-5.849-3.86-11.399-11.54-11.399zm-127.78 0.432c-0.199 0.099-0.264 0.696-0.065 0.83l0.864 0.066c1.728 0.133 1.961 0.699 1.961 4.188v11.965c0 3.489-0.067 3.822-1.928 4.154l-0.565 0.1c-0.199 0.199-0.132 0.732 0.067 0.832 1.296-0.033 2.426-0.1 3.855-0.1 1.296 0 2.426 0.033 4.221 0.1 0.2-0.1 0.266-0.7 0.066-0.832l-0.964-0.1c-1.862-0.199-2.028-0.665-2.028-4.154v-4.686c0-0.996 0.067-1.062 1.662-1.062h9.506c1.596 0 1.662 0.066 1.662 1.062v4.686c0 3.489-0.001 3.822-2.029 4.154l-0.631 0.1c-0.199 0.199-0.132 0.732 0.067 0.832 1.462-0.067 2.659-0.1 4.021-0.1 1.296 0 2.426 0.033 4.022 0.1 0.199-0.1 0.265-0.7 0.066-0.832l-0.797-0.1c-1.927-0.233-1.994-0.665-1.994-4.154v-11.965c0-3.489 0.067-3.989 1.994-4.188l0.697-0.066c0.2-0.134 0.133-0.731-0.066-0.83-1.495 0.066-2.626 0.1-3.922 0.1-1.362 0-2.493-0.034-4.021-0.1-0.199 0.099-0.266 0.696-0.067 0.83l0.631 0.066c1.961 0.199 2.029 0.699 2.029 4.188v3.822c0 1.031-0.066 1.065-1.662 1.065h-9.506c-1.595 0-1.662-0.034-1.662-1.065v-3.822c0-3.489 0.067-3.989 1.994-4.188l0.631-0.066c0.2-0.134 0.133-0.731-0.066-0.83-1.429 0.066-2.558 0.1-3.854 0.1-1.429 0-2.56-0.067-4.189-0.1zm29.213 0c-0.2 0.099-0.266 0.696-0.067 0.83l0.832 0.068c1.961 0.166 2.028 0.73 2.028 4.252v11.832c0 3.523-0.067 3.988-2.028 4.221l-0.832 0.1c-0.199 0.199-0.133 0.732 0.067 0.832 1.661-0.067 2.791-0.1 4.188-0.1 1.33 0 2.46 0.033 4.12 0.1 0.2-0.1 0.27-0.7 0.07-0.832l-0.83-0.1c-1.96-0.233-2.03-0.698-2.03-4.221v-11.832c0-3.522 0.07-4.086 2.03-4.252l0.83-0.068c0.2-0.134 0.13-0.731-0.07-0.83-1.66 0.066-2.79 0.1-4.12 0.1-1.397 0-2.527-0.034-4.188-0.1zm98.008 0.598c6.35 0 8.77 5.916 8.77 11.4 0 6.547-3.79 9.539-7.77 9.539-6.55 0-8.94-6.382-8.94-11.301 0-7.278 4.48-9.638 7.94-9.638zm-51.18 3.023h0.07c0.2 0.398 0.49 1.297 0.76 2.094l1.79 5.418c0.3 0.898 0.24 1.031-0.73 1.031h-4.08c-0.93 0-0.97-0.033-0.7-0.797l2.09-5.785c0.37-0.997 0.7-1.795 0.8-1.961z" transform="matrix(.8 0 0 -.8 294.33 390.54)" fill="#800000"/><path d="m20.67 3.1523c-1.606 0.0509-3.143 0.7715-3.143 0.7715 0.003 0.3394 0 9.7712 0 9.7712s1.006-0.81 3.084-0.81c1.008 0 4.968 1.087 6.877 0.957v-9.965s-2.811 0.3961-5.244-0.502c-0.497-0.1833-1.039-0.2396-1.574-0.2227zm-7.018 0.0079c-0.72 0.0502-1.539 0.2144-2.447 0.5644-1.067 0.4118-3.6659 0.0664-3.6659 0.0664v10.016c2.279 0.154 5.2469-1.02 6.7169-0.922 1.519 0.101 2.812 0.803 2.812 0.803v-9.7993s-1.256-0.8792-3.416-0.7285zm-9.2692 2.4062c-1.389 0-1.4187 2.1289 0 2.1289 1.396 0 1.396-2.1289 0-2.1289zm23.496 0.3906v1.8965c0.492 0.1453 1.84-0.624 2.379-0.8594 0.384-0.1678 0.928-0.0568 0.955 0.1329 0.017 0.1218 0.029 0.2074 0.037 0.2636-0.008-0.0562-0.019-0.1418-0.035-0.2636 0 0-0.06-1.1192-1.258-1.1192-0.39 0-0.865 0.4755-2.078-0.0508zm-22.039 0.1797v1.2168h1.2364v-1.2168h-1.2364zm-1.457 3.6797c-1.4512 0-1.4512 2.1266 0 2.1266 1.4047 0 1.396-2.1266 0-2.1266zm23.461 0.0566v1.897s1.06-0.009 2.236-0.766c0.353-0.228 0.874-0.133 1.133 0.072h0.002s-0.159-1.2415-1.211-1.0877c-1.936 0.2827-2.16-0.1153-2.16-0.1153zm-22.004 0.502v1.217h1.2364v-1.217h-1.2364zm11.33 4.572c-0.314 0.036-0.694 0.22-0.789 0.551-0.191 0.188-0.183-0.317-0.57-0.096-0.166 0.225 0.266 0.72 0.164 0.75-0.423 0.129-0.371-0.634-0.612-0.654-0.347 0.123-1.221 0.923-0.361 1.557-0.027-0.427 0.783-0.894 1.051 0.05 0.812-0.061 1.086 0.431 1.185 0.709 1.197 0.214 0.853 1.006 0.819 1.006-0.114-0.17-0.629-0.963-1.471-0.416-0.195 0.127-0.534 0.251-0.701 0.084 0.016 0.266 0.352 0.507 0.582 0.444 0.749-0.206 0.939 0.492 0.365 0.681 0.123 0.191 0.359 0.179 0.576 0.047 0.322-0.196 0.36-0.371 0.477-0.488 0.204 0.975-1.034 1.07-1.428 1.129 0.06 0.208 0.195 0.253 0.443 0.326-1.304 0.045-1.559 1.267-1.482 1.973 0.294 0.022 0.746-0.617 0.707-0.25-0.924 0.98-1.236 2.293-0.75 3.129 0.232-0.095 0.304-0.351 0.387-0.559 0.035-0.024 0.508 0.187-0.25 1.096-0.053 0.236-0.319 0.95 0.265 1.121 0.223-0.263 0.192-0.493 0.241-0.762 0.169-0.068 0.28 0.481 0.214 0.648-0.761 0.315-0.667 2.652 0.215 3.907-0.408-0.912-0.354-2.082 0-3.018 0.273-0.722 0.871-2.347 0.887-2.328 0.34 0.417 0.77 2.208 0.77 2.949 0.476-0.415 0.569-0.868 0.958-1.174 0.186 0.651 0.261 1.08 0.409 1.655 0.189-0.561 0.689-1.194-0.026-3.012 0.147-0.133 0.417 0.631 0.502 0.594 0.065-0.026 0.163-0.407-0.08-1.117-0.502-0.47-0.614-1.158-0.535-1.209 0.065-0.043 0.29 0.711 0.557 0.75 0.054-0.587 0.198-1.185 0.154-1.641-0.01-0.119-0.206-0.726-0.762-1.227-0.321-0.29-0.446-0.895-0.418-1.017 0.311 0.286 0.244 0.496 0.508 0.611 0.11-0.246 0.035-1.159-0.285-1.558-0.183-0.303-0.096-0.262 0.123-0.079 0.287 0.341 0.147 0.315 0.395 0.457 0.541-1.277 0.049-1.526 0.087-1.617 0.034-0.081 0.42 0.596 0.747 0.336-0.534-0.282-0.519-0.71-0.579-1.172-0.046-0.365-0.281-0.503-0.191-0.592 0.532 0.402 0.677-0.043 0.693-0.132-0.102 0.058-0.575 0.121-0.632-0.616-0.024-0.289-0.468-0.418-0.467-0.418 0.273-0.052 1.15-0.1 0.941-0.97-0.106 0.205-0.367 0.527-0.912 0.4-0.001 0 0.349-0.094 0.285-0.473-0.843 0.473-1.527-0.489-2.406-0.365zm-6.164 0.614c-0.158-0.014-0.34-0.001-0.547 0.046-0.5953 0.137-2.2528 1.012-2.4824 0.063-0.5982 1.058 0.5845 0.873 0.9414 0.851-0.141 0.098-0.3192 0.258-0.7598 0.163-0.9341 0.615-4.35 2.785-5.3359 3.33 1.3234 0.617 3.3615-0.668 3.3906-0.668l0.0234 0.023c-0.0043 0.955-2.6895 2.325-3.8398 2.942 1.7778 0.613 3.4616-1.036 3.2597-0.635-0.2415 0.468-2.4108 2.34-3.3574 3.342 0.7369 0.203 1.4129-0.391 1.9473-0.846 0.5828-0.497 1.5589-1.744 1.4101-1.125-1.5778 1.946-2.82 5.991-2.0546 6.25 0.4378-0.916 2.253-5.588 2.3672-5.567 0.12 0.023-0.144 1.233-0.1836 2.034-0.0894 1.761-0.1 2.595 0.2812 4.328 0.1959-0.268 0.3831-0.263 0.6934-0.24 0.0384-0.17 0.027-0.126-0.168-0.383-0.5044-0.667 0.0759-1.577-0.166-2.133-0.2025-0.464-0.3163-0.094-0.4082-0.576 0.1419-0.129 0.5175-0.169 0.6719-0.194 0.1646-1.808 0.7685-2.727 0.5429-1.586-0.1159 0.578-0.2908 1.535-0.207 1.563 0.0837 0.029 0.09 0.029 0.1621 0.066 0.0334 0.019 3.0395-4.926 1.373-1.5-0.2187 0.45-1.1054 1.661-1.1054 1.661 0.2344 0.239 0.4543 0.519 0.4824 0.689 0.0075 0.046 4.0275-5.291 1.2891-0.99-0.1678 0.263-0.9896 1.145-1.1993 1.4-0.0281 0.034 0.0762 1 0.0762 1 0.4178-0.289 1.0162-0.874 1.2949-1.246-0.0368-0.545 0.0911-0.473 0.1211-1.008 0.1275-0.081 0.2926 0.145 0.4945 0.326 0.095 0.086 2.759-4.552 1.088-1.072-0.269 0.559-0.862 1.22-0.889 1.274 0.112 0.121 0.281 0.504 0.473 0.947 0.007 0.018 3.563-5.129 1.402-1.24-0.17 0.306-1.242 1.595-1.229 1.629 0.263 0.643 0.493 1.268 0.493 1.267-0.065-0.502-0.166-1.489 0.875-2.305 0.135 0.893 0.373 0.93 0.683 1.204 0.136 0.12 0.392 0.629 0.422 0.195 0.088-1.269-0.324-1.236-0.631-1.776-0.074-0.13-0.061-0.42-0.004-0.402 2.561 0.076 2.477 2.474 2.905 2.473-0.195-0.612-0.249-1.212-0.018-1.703-0.686-0.486-0.514-1.319-0.383-1.68-0.771-0.797-0.327-2.494 0.041-2.852-0.496-0.721 0.114-1.212-0.017-1.656-0.209-1.567-1.605-1.1-1.918-2.59-0.219 0.266-0.621 1.167-0.432 1.467 0.217 0.344 0.681 0.375 0.709 0.627 0.012 0.107 0.048 0.407-0.029 0.471-0.265 0.048-0.444-0.196-0.715-0.303-0.542-0.215-1.856 0.684-1.936-0.109-0.05-0.5 0.171-0.14 0.147-0.602-0.022-0.477-0.262-0.14-0.266-0.756-0.002-0.45 0.543-0.592 0.582-0.773 0.097-0.447 0.907 0.656 1.383-0.516-0.277 0.04-0.836-0.154-0.783-0.428 0.124-0.641 0.147-2.078-0.961-2.171zm13.996 0.003c-0.185-0.007-0.351 0.009-0.479 0.059-0.298 0.118-0.353 0.102-0.673 0.35-0.141-0.059-0.533-0.31-1.084 0.355-0.171 0.206-0.375 0.446-0.385 0.623-0.024 0.445 0.009 0.023 0.119 0.445 0.044 0.178-0.158 0.503-0.971 0.776-0.314 0.105-0.234 0.416-0.234 0.416 0.156-0.074 0.401-0.251 0.781-0.072 0.743 0.348 0.89-0.203 1.352-0.594 0 0-0.128 0.493-0.002 0.519 0.577 0.119 0.385 0.553 0.312 0.618-0.727 0.648-0.423 0.894-0.683 1.295-0.245 0.378-0.623 0.521-1.186 0.503-0.776-0.025 1.017-1.197-0.699-1.685 0.269 0.45 0.379 0.81-0.221 1.158-0.378 0.219-0.186 1.336-1.156 0.818 0 0.002-0.078 0.828-0.189 0.864 1.316 1.153 0.579 1.782 0.646 3.429 0.412 1.049-0.039 1.548-0.143 1.606 0.066 0.711 0.133 1.1 0.577 1.678 0.321 0.42-0.03 1.065 0.298 1.513 0.303-1.069 0.626-0.624 0.713-2.111 0.121-0.251 0.62-0.693 0.905-0.721-0.005 0.898 0.328 1.716 0.257 2.094 0 0 0.757-0.139 0.991-0.057 0.186 0.065 0.329 0.31 0.334 0.459-0.257 0.162-0.259 0.099-0.647 0.383-0.68 0.495-0.992 1.503-0.992 1.504-0.002 0.001 1.596-1.273 1.711-1.504 0.091-0.182 0.178-0.463 0.264-0.752 0.008-0.031-0.824-0.518-1.053-0.963-0.715-1.388 1.105 0.823 1.148 0.631 0.107-0.48 0.442-0.933 0.442-0.933-0.116-0.137-0.401-0.222-0.836-0.989-0.996-1.754 1.154 0.75 1.154 0.75 0.57-0.327 0.572 0.109 0.645 0.571 0.006 0.043 0.967 0.751 1.013 0.796 0.271-0.253 0.469-0.596 0.58-0.832 0.015-0.031-1.736-1.582-2.035-2.095-2.412-4.136 1.952 1.836 2.158 1.672 0.115-0.324 0.155-0.768 0.141-1.371 0-0.015-0.821-0.582-1.346-1.45-2.026-3.346 1.329 0.999 1.328 0.967-0.04-0.716-0.626-3.825-0.22-2.891 0.208 0.48 0.862 2.467 0.742 4.489 0.226-0.367 1.161-0.74 1.516-0.832-0.08-3.002-1.921-6.332-1.42-5.713 1.254 1.549 1.656 4.906 2.515 7.799 0-0.001 0.553 0.282 0.436-3.387-0.025-0.744-0.327-1.733-0.696-2.422-0.728-1.362-2.205-3.659-2.162-3.676 0.356-0.29 1.222 1.692 1.975 2.471 0.489 0.504 1.845 0.999 1.939 0.934-1.088-2.109-3.723-4.096-3.447-4.342 1.94 1.818 2.552 1.905 2.633 1.808l-1.748-1.697c-0.493-0.662-1.147-1.171-1.055-1.15 0.779 0.173-0.408-0.648-1.324-0.899-0.165-0.044-0.429-0.058-0.437-0.14-0.015-0.142 0.215-0.081 0.408-0.141 0.125-0.036 0.252-0.134 0.256-0.314-0.35 0.077-0.708-0.005-1.008-0.141-0.464-0.215-1.203-0.456-1.758-0.479zm-10.959 1.2s-0.568 0.423-0.309 0.865c0.591 1.01 2.241-0.244 3.133 0.373-0.082-0.185-0.222-0.362-0.422-0.453-0.829-0.395-2.419 0.458-2.402-0.785zm3.375 9.672c-1.727 2.708-0.279 5.873-0.387 5.834-0.749-1.173-1.295-1.22-1.459-2.12-0.088-0.489-0.98-3.17-2.613-3.218 0.824 0.709 0.625 0.808 0.68 1.97-0.525 2.911 3.546 3.211 3.273 4.719-0.558-0.894-1.408-1.271-2.691-1.969-0.569-0.451-1.211-0.648-1.246-1.353 0.068-0.512 0.099-0.406 0.011-1.072-0.063-0.476-0.531-0.188-0.875-1.18-0.734 0.665-0.466 1.418-0.406 1.848 0.017 0.12 0.101 0.572-0.012 0.835-0.262-0.18-0.444-0.551-0.736-0.923-0.527-0.675-0.52-1.494-0.785-2.063-0.123-0.264-0.2974-0.622-0.4005-0.627l-0.0195 0.01c-0.1288 1.058-0.0654 1.983 0.414 2.775 0 0-0.131 0.227-0.2383 0.286-0.4556-0.121-1.104-0.505-1.3672-1.249-0.5671 0.477-0.1642 1.092-0.1914 1.082-1.274-0.652 0.0139-3.182-1.8007-3.107 0.4471 0.487 0.164 1.113 0.125 1.697-0.01 0.949 1.1953 1.686 1.1953 1.686-1.3438-0.455-1.6198 0.176-1.6035 0.176 0 0 1.9808 0.86 5.1078 1.185 0.402 0.043 0.974 0.514 0.878 0.514-0.4-0.031-1.195-0.549-2.3413 0.469 0.6743 0.018 1.1373 1.116 2.2343 0.486 2.83-0.801 3.877 0.605 4.338 0.965-0.099 0.177-2.173-1.305-3.82-0.322-0.877 0.522-2.285 0.049-3.3871-0.776 0.4453 1.137 2.3421 2.415 2.9671 2.416 0.768 0.001 1.748-1.002 2.863-0.947 1.784 0.088 2.034 1.682 1.836 1.558 0 0.001-1.405-2.319-3.209 0.161 0.843-0.387 1.971-0.289 2.959 0.179 0.133 0.063-0.243 0.479-0.508 0.782-0.173 0.195-0.926 1.311-1.74 0.212-0.122-0.163-0.509-1.183-3.055-0.966 0.962 0.433 2.023 1.571 2.547 2.09 1.334 1.32 3.349-1.602 3.426-1.276 0 0.657 0.338 0.976 0.515 1.33 0.447 0.894-0.567 0.746-1.117 0.516 0 0 1.053 1.64 1.934 0.726 0.976-1.011-1.278-1.774-0.563-2.578 0.404-0.453 1.818 1.014 2.459 1.018 1.731 0.193 1.642-1.451 2.555-1.403-0.859-0.871-1.774-0.396-1.965-0.173-0.576 0.672-1.245 0.221-1.707-0.141-0.254-0.333-0.677-0.386-1.054-0.285-0.18 0.015 0.363-0.636 1.068-0.498 1.591 0.309 3.186-0.263 3.578-0.483 0.64-0.36 1.001-0.968 1.717-1.65-0.224 0.042-1.547 0.778-1.973 0.992-1.276 0.642-2.073-0.189-2.217-0.185-0.245 0.006-0.181-0.187 0.203-0.311 1.309-0.291 2.212-1.445 3.459-1.9 1.377-0.616 3.125-0.199 4.289-1.35 0.373-0.314 0.587-0.848 1.067-1.008-0.363-0.332-0.717 0.331-0.902 0.102 0.332-0.528 0.544-0.929 0.58-1.586 0.019-0.356 0.43-0.687 0.527-0.883-0.396 0.058-1.455 0.682-1.668 1.041-0.712 0.94-0.674 1.822-3.648 3.135-0.148 0 0.551-0.509 0.75-1.096 0.093-0.275 0.484-1.551 0.214-2.166-0.614 0.624-0.488 0.829-0.662 1.291-0.443 1.216-0.687 1.332-1.797 2.082-0.147 0.1-0.997 1.414-2.101 1.477 0.111-0.031 0.047-0.303 0.42-0.547 1.236-0.809 0.765-2.559 2.379-2.85-0.804-0.285-1.354 0.498-1.502 0.418 0.65-0.901 0.079-1.662 0.174-2.398-0.217 0.115-0.435 0.378-0.455 0.596-0.122 1.31-0.733 1.539-0.795 2.103 0.13 0.934-0.621 1.662-1.17 2.318-0.107-0.544 0.035-1.027 0.72-1.476 0.379-0.249-0.035-0.994-0.035-0.994-0.154 0.816-0.612 1.065-0.898 1.105-0.249 0.036 0.874-1.141 0.744-2.217-0.058-0.479-0.195-0.266-0.272-0.804-0.969 1.076-0.26 1.744-1.253 2.986-0.471 0.588-0.647 1.622-0.709 1.648 0.01-1.54 0.058-1.089 0.744-2.341 0.563-1.03-0.031-1.99-0.108-2.61-1.233 0.848-1.13 2.486-1.162 2.131-0.031-0.348-0.185-0.964-0.019-1.519 0.274-0.923-0.307-2.33-0.307-2.33zm-7.9805 1.722c-0.4641 0.464-0.6272 0.476-0.6016 0.678 0.105 0.283 0.3093 0.482 0.5274 0.725 0.2743 0.224 0.377 0.427 0.1758-0.227-0.1242-0.433-0.0953-0.75-0.1016-1.176zm16.552 0.744c-0.005 0.099-0.007 0.083-0.025 0.2-0.04 0.271-0.041 0.484-0.127 0.793-0.008 0.029 0.307 0.156 0.449 0.279 0.201-0.187 0.379-0.281 0.59-0.545-0.047-0.03-0.886-0.759-0.887-0.727zm-0.236 1.252c-0.053 0.141-0.124 0.3-0.219 0.489-0.084 0.169 0.169 0.047 0.557-0.293 0 0-0.32-0.243-0.338-0.196zm3.305 0.5c-0.304 0.397-0.749 0.744-1.196 0.922-0.314 0.996-0.165 2.023 0.199 1.494 0.522-0.746 0.82-1.549 0.997-2.416zm-22.84 0.094c0.2087 0.705 0.3626 1.322 0.7539 2.064 0.2234 0.424 0.6103-0.597 0.2128-1.636-0.3206-0.137-0.6699-0.226-0.9667-0.428z" transform="matrix(.8 0 0 -.8 294.33 390.54)" fill="#fff"/><path d="m21.83 3.9668l-0.23 0.1973 0.004 0.2773 0.144 0.1426h0.143l0.173-0.1504v-0.2402l-0.234-0.2266zm-0.728 0.3105c-0.133-0.0158-0.57 0.022-0.727 0.0469-0.158 0.0238-0.157 0.0993-0.025 0.1153 0.13 0.0133 0.155 0.0406 0.224 0.2167 0.063 0.1772-0.253 0.9806-0.332 1.17-0.092-0.1378-0.426-0.8733-0.426-0.9727 0-0.0716 0.148-0.1413 0.211-0.1582 0.124-0.0385 0.121-0.1241 0.028-0.1426-0.262-0.0371-1.181-0.1186-1.344-0.1386-0.118-0.01-0.172 0.1269-0.029 0.1269 0.147 0.0038 0.301-0.0409 0.463 0.1953 0.185 0.2672 0.768 1.5214 0.908 2.0489 0.068-0.111 0.65-1.7979 0.683-1.9766 0.042-0.175 0.165-0.3459 0.336-0.3965 0.177-0.0475 0.161-0.1233 0.03-0.1348zm2.4 0.1485c-0.024-0.0119-0.06 0.0055-0.08 0.0625-0.04 0.1119-0.357 0.5472-0.684 0.6875-0.168 0.0662 0.206 0.222 0.18 0.2148-0.001 0.4194 0.059 1.047 0.148 1.2989 0.056 0.15 0.227 0.3946 0.344 0.3203 0.076-0.0479 0.239-0.3745 0.291-0.416 0.091-0.0738 0.002-0.2006-0.074-0.125-0.084 0.0737-0.155-0.0407-0.178-0.1172-0.028-0.0744-0.105-0.9956-0.066-1.0137 0 0 0.744-0.0899 0.818-0.0899 0.051 0 0.053-0.164 0-0.164-0.094 0-0.724 0.0141-0.74-0.0215-0.046-0.1347-0.057-0.2995 0.051-0.5273 0.027-0.0569 0.014-0.0976-0.01-0.1094zm-10.369 0.1367c-0.227 0.0063-0.757 0.262-0.85 0.9336-0.089 0.6444 0.517 0.9943 0.996 1.0137 0.16 0 0.36-0.2071 0.459-0.2559 0.213-0.1041 0.133-0.2077-0.109-0.1523-0.529 0.1334-0.775-0.2912-0.828-0.4043 0.213-0.2188 0.575-0.5763 0.797-0.7578-0.147-0.135-0.205-0.3576-0.465-0.377zm1.851 0.1602c-0.355-0.0144-0.756 0.3056-0.886 0.5078-0.173 0.2675 0.037 0.502 0.263 0.6757-0.144 0.1234-0.345 0.314-0.531 0.4883 0.074 0.081 0.483 0.2752 0.711 0.2696 0.346-0.0075 0.664-0.1876 0.861-0.3457 0.36-0.2844 0.235-0.5854-0.131-0.7989-0.035-0.021-0.068-0.0265-0.103-0.0332 0.227-0.18 0.425-0.3411 0.477-0.4043-0.147-0.1006-0.307-0.3437-0.661-0.3593zm-2.039 0.0585c0.06 0.1479 0.214 0.2551 0.299 0.3067-0.15 0.1462-0.385 0.4105-0.482 0.4824-0.134-0.4297-0.084-0.5769 0.183-0.7891zm-1.175 0.0059c-0.087 0.0721-0.286 0.192-0.397 0.2539-0.087-0.0994-0.195-0.1001-0.369-0.2363-0.097 0.0737-0.309 0.2301-0.424 0.3691 0.203 0.059 0.354 0.0707 0.367 0.2442 0.008 0.1415-0.014 1.0122-0.002 1.1718 0.108 0.0235 0.241 0.0137 0.395 0.0059 0.012-0.1247 0.006-1.2169 0.006-1.3379 0.058-0.0325 0.118-0.0649 0.146-0.0918 0.064 0.0488 0.191 0.2343 0.293 0.2949 0.079-0.0581 0.279-0.1868 0.365-0.2734 0.091-0.0887-0.006-0.1515-0.086-0.0742-0.06-0.0716-0.213-0.2299-0.294-0.3262zm9.916 0.0352l-0.108 0.0136-0.492 0.4317c-0.051 0.0756 0.081 0.0763 0.146-0.0137l0.358 0.2051 0.015 0.959c0.028 0.115 0.124 0.2253 0.266 0.3672h0.285l0.309-0.4004c-0.223-0.0384-0.315-0.0783-0.471-0.2559l0.006-0.9922-0.314-0.3144zm-11.526 0.0722c-0.028-0.0022-0.057 0.0108-0.058 0.0469-0.007 0.1325-0.084 0.1438-0.186 0.1113-0.2106-0.0628-0.676-0.1631-0.9472-0.0078-0.2385 0.1406-0.6043 0.4707-0.5977 0.8848 0.0075 0.6806 0.2641 0.7365 0.5625 0.9199 0.2794 0.1644 0.6648 0.0592 1.0176-0.043 0.1398-0.0381 0.1578 0.0494 0.2248 0.1485 0.114 0.1528 0.206 0.0556 0.125-0.0684-0.031-0.0397-0.09-0.103-0.092-0.1836 0-0.0531 0.006-0.6103 0.006-0.6797 0-0.0656-0.131-0.0587-0.131 0-0.006 0.0992 0.008 0.2675-0.08 0.4043-0.2445 0.3778-0.7103 0.5338-1.0372 0.0703-0.1113-0.1537-0.1383-0.3864-0.1523-0.5527-0.0219-0.2219 0.1465-0.5092 0.1562-0.5351 0.4163-0.5454 0.9941-0.1415 1.0413 0.08 0.031 0.1478 0.064 0.3289 0.064 0.4239-0.004 0.0631 0.132 0.0578 0.135-0.0079 0-0.0681 0.004-0.906 0.004-0.9648 0.001-0.0272-0.027-0.0446-0.055-0.0469zm4.455 0.1407c0.111 0.0152 0.356 0.1466 0.502 0.2832-0.031 0.0256-0.123 0.0993-0.221 0.1777-0.057 0.01-0.115 0.0175-0.175 0.0098-0.181-0.026-0.268-0.1638-0.352-0.2735-0.086-0.1144 0.137-0.2088 0.246-0.1972zm10.475 0.2578c-0.242 0.0362-0.49 0.3471-0.569 0.4511-0.057 0.0825-0.042 0.1862 0 0.2247 0.049 0.0393 0.11 0.0793 0.176 0.1191-0.011-0.0063-0.021-0.0148-0.033-0.0195-0.113 0.1068-0.279 0.4143-0.273 0.623 0.002 0.2094 0.191 0.5132 0.318 0.627 0.141-0.1084 0.347-0.2906 0.652-0.3496 0.034 0.1468 0.104 0.2368 0.221 0.3203l0.398-0.4356s-0.176-0.1388-0.281-0.2676c0-0.0912-0.001-0.9629 0.037-1.0097-0.299-0.2669-0.517-0.3004-0.646-0.2832zm-0.203 0.2617c0.061 0 0.454 0.2097 0.441 0.3203 0.014 0.0781 0.017 0.2445 0.016 0.4102-0.196-0.0704-0.585-0.2529-0.725-0.3692-0.037-0.029-0.04-0.0464 0.006-0.1191 0.089-0.1325 0.191-0.2478 0.262-0.2422zm-8.901 0.0762c-0.083-0.005-0.213 0.2261 0.289 0.207 0.079-0.0025 0.137-0.1827-0.289-0.207zm-1.25 0.1953c0.121 0.0543 0.242 0.1088 0.375 0.1875 0.193 0.109 0.095 0.3165-0.113 0.4121-0.211 0.0971-0.59-0.1753-0.648-0.2871 0.077-0.0669 0.223-0.1832 0.386-0.3125zm1.244 0.1054c-0.086-0.005-0.217 0.1532 0.288 0.2051 0.078 0.0088 0.183-0.1763-0.288-0.2051zm8.778 0.1895c0.189 0.1059 0.41 0.1999 0.584 0.2559-0.001 0.1493-0.006 0.2829-0.006 0.332 0 0.0637 0.005 0.1159 0.01 0.166-0.102 0.0062-0.192 0.0335-0.323 0.0957-0.107-0.0871-0.384-0.4232-0.179-0.7988-0.028-0.0173-0.059-0.0333-0.086-0.0508zm-10.846 0.7012c-0.022-0.0029-0.045 0.0202-0.049 0.0722-0.007 0.1057-0.135 0.0743-0.232 0.0743-0.099-0.0026-0.385-0.0477-0.633 0.0898-0.157 0.0916-0.518 0.3741-0.316 0.7129 0.118 0.1975 0.81 0.3586 0.982 0.4726 0.173 0.1128 0.212 0.4037 0.047 0.5371-0.206 0.1635-0.765 0.0269-0.852-0.0722-0.113-0.1256-0.157-0.2297-0.181-0.375-0.024-0.1491-0.149-0.1363-0.149 0 0 0.1356 0.032 0.5999 0.057 0.709 0.022 0.1137 0.136 0.0761 0.146-0.0098 0.013-0.08 0.067-0.1031 0.141-0.1094 0.16-0.0131 0.418 0.084 0.703 0.0606 0.34-0.0244 0.606-0.5519 0.459-0.961-0.136-0.3884-0.57-0.3193-0.861-0.4121-0.268-0.0731-0.38-0.2414-0.088-0.4336 0.344-0.2218 0.772 0.134 0.812 0.209 0.064 0.1131 0.116 0.1102 0.116-0.0371 0.008-0.3216-0.021-0.1386-0.053-0.4414-0.005-0.0541-0.027-0.0831-0.049-0.0859zm-1.965 0.0918c-0.01 0.0039-0.021 0.0179-0.031 0.0449-0.045 0.11-0.359 0.5994-0.562 0.6797-0.166 0.0681-0.148 0.1055-0.042 0.1328 0.085 0.0162 0.173 0.1184 0.157 0.1172-0.017 0.4053-0.056 0.905 0.07 1.1172 0.08 0.134 0.299 0.273 0.399 0.1855 0.116-0.0929 0.202-0.2502 0.25-0.2871 0.089-0.0738 0.017-0.1488-0.059-0.0781-0.06 0.0593-0.22-0.0785-0.227-0.0879-0.051-0.0603-0.127-0.8494-0.091-0.8672 0 0 0.502-0.0618 0.568-0.0606 0.05 0.0038 0.058-0.1573 0.004-0.1601-0.082 0-0.465 0.0532-0.479 0.0156-0.021-0.0835-0.073-0.3655 0.053-0.6074 0.045-0.0792 0.021-0.1564-0.01-0.1445zm3.92 0.0097l-0.217 0.1953 0.004 0.2676 0.133 0.1367h0.135l0.16-0.1464v-0.2305h0.002l-0.217-0.2227zm4.561 0.2324c-0.026-0.0025-0.053 0.013-0.053 0.0508 0 0.0519-0.114 0.0808-0.227 0.0508-0.222-0.0702-0.872 0.0307-1.162 0.1895-0.257 0.1468-0.651 0.4848-0.646 0.9101 0.007 0.7022 0.286 0.7616 0.605 0.9453 0.303 0.171 0.811 0.1375 1.192 0.0371 0.144-0.0421 0.221-0.0505 0.217 0.0743 0 0.0778 0.109 0.0603 0.109 0.0019 0-0.0575 0.006-0.6459 0.006-0.7109 0-0.0738-0.106-0.0628-0.106 0 0 0.0985-0.001 0.1276-0.097 0.2676-0.263 0.3878-0.919 0.3725-1.27-0.1016-0.12-0.1613-0.229-0.377-0.09-0.418 0.139-0.0421 0.561 0.0449 0.84 0.0684 0.167 0.0112 0.553 0.0504 0.602 0.0781 0.043 0.0319 0.107 0.072 0.107-0.0117 0.004-0.0821 0.004-0.3538 0.004-0.4375 0-0.081-0.062-0.0405-0.109-0.0117-0.048 0.0331-0.461 0.1018-0.625 0.1308-0.166 0.0307-0.675 0.0708-0.809 0.0254-0.137-0.0456-0.092-0.3207 0.029-0.4785 0.356-0.47 1.075-0.4384 1.334-0.0469 0.09 0.136 0.088 0.1693 0.088 0.2715 0 0.0616 0.104 0.0688 0.104 0 0.006-0.0665 0.009-0.7771 0.009-0.834 0-0.0277-0.026-0.0482-0.052-0.0508zm-11.209 0.125c-0.2597 0.0938-0.6419 0.3265-0.8047 0.5684-0.2357 0.3603-0.3655 0.9289 0.0429 1.2617 0.1919 0.1607 0.352 0.2849 0.7442 0.2149 0.0778-0.1553 0.1122-0.2071 0.25-0.3867-0.2703 0.0437-0.4786-0.005-0.6758-0.1543-0.4063-0.3154-0.2802-0.8227-0.1602-0.9961 0.2191-0.3257 0.53 0.1397 0.586 0.2031 0.0721-0.0866 0.1981-0.2107 0.3203-0.3067-0.1213-0.16-0.2206-0.3077-0.3027-0.4043zm13.019 0.0254c-0.07 0.0582-0.306 0.3136-0.437 0.3946-0.031-0.1407-0.246-0.2907-0.42-0.3223-0.057 0.0609-0.469 0.3736-0.656 0.4649-0.058 0.0277-0.036 0.1549 0.045 0.123 0.076-0.0334 0.204-0.1315 0.351-0.2012 0.17 0.066 0.363 0.2398 0.381 0.5957 0.016 0.3932-0.189 0.8057-0.412 0.9922 0.385-0.0996 0.436-0.3296 0.646-0.5996 0.116 0.1719 0.333 0.3807 0.491 0.4707 0.111-0.0737 0.425-0.4272 0.494-0.5-0.227-0.0606-0.667-0.2924-0.776-0.5371-0.086-0.1816-0.064-0.267 0.022-0.4102 0.076 0.1007 0.61 0.3446 0.849-0.0644-0.262-0.0953-0.498-0.2675-0.578-0.4063zm-11.758 0.1368c-0.229 0.021-0.5606 0.2899-0.6597 0.5214-0.0396 0.0923 0.0161 0.4264 0.0586 0.4629 0.03 0.0267 0.054 0.0442 0.0801 0.0645-0.151 0.1403-0.2915 0.2583-0.2871 0.4668 0.0062 0.2006 0.1648 0.3808 0.3711 0.4746 0.11-0.1681 0.282-0.2713 0.467-0.3145 0.015 0.16 0.053 0.2768 0.158 0.3575 0.076-0.0834 0.377-0.3453 0.436-0.4043 0.064-0.0603 0.015-0.1309-0.059-0.0586-0.044 0.0412-0.152-0.0199-0.184-0.0723 0-0.0877 0.001-1.0128 0.039-1.0547-0.136-0.1481-0.267-0.4602-0.42-0.4433zm4.52 0.0351c-0.15 0.0954-0.381 0.2922-0.48 0.375-0.125 0.105-0.38 0.4677-0.239 0.8574 0.141 0.4 0.472 0.5272 0.719 0.5469 0.074-0.1369 0.21-0.3448 0.285-0.4414 0.111-0.1475-0.002-0.2364-0.08-0.0664-0.06 0.1309-0.38-0.0135-0.496-0.125-0.156-0.1453-0.253-0.5264-0.129-0.6602 0.126-0.1356 0.305-0.0734 0.537-0.08 0.153-0.0075 0.187-0.1486 0.213-0.2207-0.074-0.0348-0.185-0.0978-0.33-0.1856zm8.9 0.1758c-0.152 0.0844-0.811 0.4263-0.867 0.8223-0.08 0.5834 0.105 0.6989 0.362 1.0195 0.144 0.1822 0.384 0.1902 0.494 0.1621 0.118-0.0819 0.549-0.4914 0.597-0.543 0.044-0.0503-0.018-0.0964-0.072-0.0449-0.053 0.0488-0.034 0.0695-0.105 0.0801-0.074 0.0125-0.367 0.0616-0.538-0.0274-0.213-0.1122-0.491-0.3764-0.427-0.6992 0.047-0.2381 0.214-0.3347 0.291-0.4062 0.108 0.1206 0.217 0.2558 0.381 0.2558 0.159 0.0013 0.325-0.0727 0.377-0.1386-0.132-0.1063-0.432-0.4211-0.493-0.4805zm-13.67 0.0742c0.058 0.0038 0.265 0.2539 0.25 0.3633 0.012 0.0604 0.015 0.1719 0.018 0.2891-0.256 0.1659-0.337 0.1597-0.5136-0.0391-0.0878-0.1016-0.0795-0.2927-0.0391-0.3652 0.0797-0.1247 0.2187-0.2496 0.2847-0.2481zm5.77 0.0195l-0.096 0.0137-0.42 0.3867c-0.112 0.1013-0.013 0.149 0.114 0.0371l0.216 0.1329 0.008 0.9082c0.022 0.1087 0.119 0.1454 0.252 0.2832l0.235-0.2012 0.185-0.2012c-0.209-0.0396-0.209-0.025-0.32-0.125l0.01-0.9648-0.184-0.2696zm9.557 0.084c-0.554 0.1969-0.895 0.6335-0.911 1.1504-0.01 0.3022 0.246 0.9263 0.778 0.9297 0.163-0.1572 0.337-0.3237 0.51-0.4375 0.108-0.1966 0.268-0.5156 0.257-0.7578-0.014-0.2978-0.197-0.7395-0.634-0.8848zm-0.319 0.3809c0.248 0.0912 0.537 0.3329 0.563 0.5566 0.035 0.29-0.049 0.6345-0.205 0.8223-0.103-0.0496-0.475-0.3377-0.561-0.5586-0.112-0.2981-0.114-0.6272 0.203-0.8203zm-14.736 0.2832c0.001 0.1506 0 0.2933 0 0.3477-0.001 0.05-0.001 0.0917 0 0.1367-0.049 0.0125-0.105 0.0238-0.174 0.0586-0.094-0.0798-0.5395-0.224-0.248-0.459 0.179 0.1052 0.249 0.0229 0.422-0.084zm15.986 0.1211c-0.091 0-0.14 0.1298-0.027 0.1601 0.072 0.02 0.208 0.0426 0.338 0.0489 0.088 0.0087 0.059-0.1291-0.006-0.1563-0.069-0.026-0.213-0.0527-0.305-0.0527zm-0.006 0.3086c-0.096 0-0.14 0.1258-0.027 0.1601 0.071 0.0213 0.203 0.0411 0.336 0.0508 0.084 0.01 0.055-0.13-0.01-0.1562-0.065-0.0238-0.21-0.0531-0.299-0.0547zm-12.818 0.4453c-0.062 0.1225-0.163 0.2349-0.346 0.3184 0.112 0.0968 0.258 0.2223 0.354 0.2851 0.11-0.1225 0.209-0.2358 0.336-0.3555-0.126-0.0246-0.27-0.0879-0.344-0.248zm-1.004 0.2285c-0.019-0.0106-0.042 0.0079-0.058 0.0645-0.036 0.111-0.3 0.5979-0.456 0.7109h0.002c-0.131 0.099 0.155 0.236 0.129 0.229 0.01 0.406-0.048 0.825 0.09 1.031 0.088 0.128 0.361 0.222 0.408 0.099 0.046-0.123 0.253-0.377 0.299-0.42 0.086-0.076 0.01-0.145-0.062-0.07-0.15 0.159-0.234 0.085-0.344-0.019-0.053-0.061-0.074-0.628-0.035-0.645 0 0 0.274-0.041 0.34-0.041 0.051 0 0.048-0.158-0.006-0.158-0.082 0-0.328 0.003-0.342-0.035-0.031-0.079 0.049-0.4629 0.063-0.6351 0.005-0.0606-0.009-0.1007-0.028-0.1113zm5.803 0.0039c0.007 0.1997 0.082 1.9175 0.06 2.1565-0.013 0.136 0.169 0.281 0.336 0.394 0.081-0.098 0.257-0.354 0.403-0.463 0.086-0.07 0.027-0.117-0.039-0.091-0.132 0.061-0.265 0.013-0.278-0.139-0.012-0.153-0.012-1.6287 0-1.8419-0.101 0-0.387-0.006-0.482-0.0156zm3.637 0.0488c-0.025-0.0127-0.062 0.0014-0.082 0.0567-0.043 0.1177-0.316 0.405-0.592 0.541-0.157 0.078 0.21 0.223 0.185 0.217-0.005 0.416-0.088 1.095 0.055 1.31 0.088 0.133 0.289 0.22 0.424 0.168 0.129-0.051 0.293-0.309 0.342-0.351 0.096-0.072 0.013-0.149-0.067-0.074-0.079 0.074-0.293 0.02-0.322-0.055-0.022-0.078-0.049-0.986-0.012-1.004 0 0 0.258-0.005 0.326-0.002 0.055 0 0.059-0.166 0.006-0.166-0.094-0.001-0.302-0.02-0.314-0.057-0.031-0.085 0.007-0.3621 0.06-0.4743 0.028-0.0569 0.015-0.0966-0.009-0.1094zm-12.569 0.2325c-0.1971 0.1332-0.8498 0.4062-0.9492 1.0802-0.0871 0.648 0.5246 1.033 0.8184 1.158 0.0741-0.149 0.2239-0.391 0.3711-0.561 0.1119-0.13-0.0107-0.164-0.1113-0.064-0.1354 0.148-0.5397 0.008-0.6465-0.187 0.195-0.148 0.7025-0.573 0.9238-0.754-0.1459-0.137-0.3713-0.477-0.4063-0.6722zm5.8988 0.0605c-0.226 0.0231-0.563 0.3457-0.635 0.4507-0.055 0.079 0.015 0.46 0.059 0.497 0.012 0.008 0.018 0.01 0.029 0.021-0.151 0.155-0.264 0.327-0.262 0.543 0.008 0.206 0.076 0.411 0.285 0.504 0.186-0.137 0.425-0.303 0.655-0.346 0.112 0.136 0.284 0.225 0.388 0.307 0.072-0.087 0.302-0.272 0.365-0.33 0.061-0.062 0.001-0.148-0.062-0.067-0.049 0.075-0.212 0.02-0.258-0.056 0-0.088-0.084-1.012-0.047-1.055-0.133-0.149-0.362-0.4852-0.517-0.4687zm4.992 0.0587c-0.243 0.02-0.552 0.445-0.629 0.555-0.061 0.079 0.003 0.381 0.049 0.42 0.016 0.015 0.025 0.016 0.039 0.029-0.114 0.107-0.319 0.386-0.315 0.592 0.004 0.21 0.105 0.413 0.227 0.527 0.208-0.145 0.339-0.345 0.686-0.479 0.042 0.162 0.157 0.186 0.292 0.288 0.082-0.089 0.375-0.451 0.44-0.514 0.065-0.062 0.028-0.124-0.065-0.061-0.092 0.062-0.155 0.024-0.31-0.142 0.006-0.091-0.013-0.83 0.023-0.871-0.141-0.153-0.27-0.3597-0.437-0.344zm-9.873 0.023c-0.127 0.12-0.227 0.229-0.412 0.375 0.086 0.099 0.233 0.225 0.246 0.395 0.011 0.172 0.005 0.968 0.015 1.168 0.136 0 0.111 0.015 0.344 0.006-0.023-0.136-0.004-1.171-0.004-1.319 0.088-0.083 0.101-0.097 0.201-0.172 0.073 0.064 0.241 0.1 0.241 0.211 0 0.112 0.033 0.604-0.006 0.786-0.049 0.221-0.028 0.38 0.092 0.603 0.09-0.101 0.43-0.337 0.504-0.396 0.072-0.063 0.035-0.11-0.059-0.084-0.1 0.021-0.119 0.04-0.119-0.024 0-0.119-0.048-0.657-0.055-1.002-0.012-0.345-0.18-0.448-0.277-0.496-0.099 0.11-0.32 0.249-0.451 0.361-0.1-0.073-0.15-0.237-0.26-0.412zm3.332 0.024l-0.1 0.013-0.418 0.391c-0.11 0.097-0.013 0.142 0.116 0.035l0.275 0.143 0.008 0.883c0.023 0.109 0.119 0.135 0.254 0.273l0.173-0.178 0.182-0.201c-0.205-0.038-0.108-0.035-0.217-0.135l-0.006-0.834-0.267-0.39zm-4.6681 0.211c0.0587 0.15 0.247 0.436 0.332 0.486-0.1462 0.146-0.5048 0.39-0.6054 0.461-0.1835-0.23-0.2825-0.607 0.2734-0.947zm13.807 0.025c-0.098 0.099-0.267 0.214-0.426 0.391 0.132 0.008 0.241 0.037 0.304 0.164 0.066 0.125 0.011 0.655 0.02 0.859 0.011 0.198 0.13 0.24 0.287 0.404 0.157-0.04 0.595-0.223 0.742-0.324-0.013 0.163 0.193 0.345 0.315 0.381 0.081-0.089 0.169-0.137 0.289-0.248-0.117-0.078-0.103-0.089-0.147-0.244-0.034-0.149 0.01-0.715 0.014-0.957-0.093-0.14-0.245-0.31-0.4-0.426-0.11 0.1-0.259 0.235-0.432 0.418 0.129-0.017 0.384 0.034 0.396 0.143 0.008 0.14 0.029 0.447 0 0.685-0.029 0.24-0.675 0.129-0.683-0.033-0.015-0.166 0.032-0.643 0.035-0.869-0.091-0.14-0.145-0.218-0.314-0.344zm-7.922 0.016c0.055 0 0.397 0.208 0.379 0.318 0.013 0.079 0.006 0.228-0.002 0.373-0.17 0.004-0.317-0.05-0.502-0.213-0.036-0.03-0.068-0.239-0.028-0.308 0.082-0.13 0.081-0.172 0.153-0.17zm5.056 0.058c0.064 0.004 0.31 0.173 0.297 0.287 0.013 0.075 0.014 0.23 0.014 0.387-0.185 0.023-0.315 0.044-0.522-0.131-0.038-0.03-0.047-0.312-0.004-0.383 0.089-0.135 0.145-0.16 0.215-0.16zm5.114 0.178c-0.109 0.074-0.423 0.359-0.555 0.434 0.19 0.005 0.476 0.069 0.486 0.246 0.006 0.143-0.01 1.039 0 1.203 0.117 0.025 0.254 0.013 0.424 0.004 0.009-0.127 0.004-1.16 0.008-1.285 0.057-0.032 0.125-0.065 0.158-0.094 0.066 0.049 0.265 0.278 0.381 0.34 0.079-0.061 0.286-0.241 0.377-0.326 0.096-0.096-0.008-0.158-0.092-0.081-0.066-0.077-0.243-0.223-0.402-0.335-0.092 0.075-0.279 0.21-0.399 0.273-0.089-0.101-0.206-0.239-0.386-0.379zm-10.243 0.486c0.156 0.106 0.245 0.092 0.442 0.073-0.009 0.106-0.016 0.204-0.016 0.248 0 0.047 0.02 0.083 0.033 0.123-0.101 0.036-0.232 0.059-0.332 0.109-0.09-0.08-0.422-0.307-0.127-0.553zm5.026 0.106c0.135 0.075 0.204 0.028 0.414 0.006-0.001 0.132-0.006 0.252-0.006 0.316-0.093 0.066-0.207 0.123-0.338 0.188-0.104-0.086-0.255-0.159-0.07-0.51zm-2.678 4.453c-0.34 0.03-0.621 0.245-0.621 0.289 0 0.128 0.133 0.194 0.516-0.047-0.3 0.347 0.041 0.629 0.041 0.629-0.125-0.019-0.303-0.062-0.416-0.127-0.024 0.125 0.15 0.172 0.232 0.227 0.634 0.26 1.05-0.35 1.607-0.457v-0.024c-0.373-0.054-0.666-0.316-1.007-0.445-0.119-0.045-0.239-0.055-0.352-0.045zm0.293 0.217c0.143 0.041 0.482 0.232 0.604 0.312l-0.606 0.307s0.169-0.182 0.168-0.313c0-0.176-0.166-0.306-0.166-0.306z" transform="matrix(.8 0 0 -.8 294.33 390.54)" fill="#800000"/></g></g></svg>
